<?xml version="1.0" standalone="no"?>
<!DOCTYPE svg PUBLIC "-//W3C//DTD SVG 20010904//EN"
 "http://www.w3.org/TR/2001/REC-SVG-20010904/DTD/svg10.dtd">
<svg version="1.0" xmlns="http://www.w3.org/2000/svg"
 width="500.000000pt" height="500.000000pt" viewBox="0 0 500.000000 500.000000"
 preserveAspectRatio="xMidYMid meet">
<metadata>
Created by potrace 1.14, written by Peter Selinger 2001-2017
</metadata>
<g transform="translate(0.000000,500.000000) scale(0.100000,-0.100000)"
fill="#000000" stroke="none">
<path d="M2204 4286 c-24 -24 -48 -36 -78 -40 -27 -4 -52 -16 -66 -31 -13 -14
-44 -35 -69 -47 -25 -12 -55 -33 -66 -47 -28 -35 -54 -100 -54 -138 -1 -19
-13 -50 -32 -76 -18 -25 -33 -62 -36 -88 -3 -24 -12 -54 -20 -65 -8 -12 -13
-37 -11 -56 1 -19 -6 -51 -15 -70 -12 -25 -16 -57 -15 -104 1 -51 -3 -80 -18
-109 -10 -22 -19 -42 -19 -45 -1 -3 -16 -43 -34 -90 -37 -95 -61 -229 -60
-335 l1 -70 13 85 c35 226 110 437 198 558 43 59 139 128 193 138 42 8 146 -2
234 -22 141 -32 334 -56 525 -64 292 -12 436 -45 544 -123 92 -67 140 -118
172 -185 33 -66 33 -69 40 -257 6 -145 12 -208 28 -265 43 -155 71 -295 65
-325 -3 -16 -20 -59 -36 -95 -39 -84 -74 -184 -98 -285 -26 -109 -55 -187 -75
-202 -11 -7 -15 -19 -11 -30 6 -16 5 -16 -8 1 -14 18 -15 17 -22 -8 -3 -14
-10 -26 -15 -26 -5 0 -37 -28 -71 -63 -35 -34 -83 -78 -108 -98 -49 -39 -205
-129 -224 -129 -7 0 -16 -4 -21 -9 -23 -20 -127 -71 -160 -77 -19 -3 -35 -10
-35 -14 0 -4 -10 -10 -22 -13 -13 -3 -50 -12 -83 -21 -33 -8 -76 -15 -95 -15
-29 0 -16 8 77 47 103 44 153 72 127 72 -5 0 -14 -4 -19 -9 -6 -5 -147 -56
-315 -112 -278 -93 -358 -124 -347 -136 9 -9 57 -13 57 -5 0 17 68 30 112 21
147 -28 527 20 713 91 224 86 439 243 545 398 35 51 74 73 102 56 7 -4 3 3 -9
15 -13 12 -23 24 -23 27 0 10 41 168 47 184 3 8 5 19 4 23 0 4 3 16 8 25 5 9
11 35 15 57 6 44 7 47 31 151 9 39 17 83 18 97 1 14 12 35 24 47 12 11 20 26
17 34 -3 8 -1 17 5 21 7 3 8 0 5 -9 -4 -11 0 -13 15 -9 16 4 21 1 21 -16 0
-23 13 -27 27 -8 5 6 18 62 28 122 10 61 22 120 26 132 32 88 60 366 47 477
-10 99 -23 140 -56 190 -15 22 -29 60 -33 90 -25 185 -41 219 -151 318 -87 78
-143 116 -245 166 -34 16 -88 51 -121 76 -32 25 -61 46 -65 46 -4 0 -31 16
-61 35 -30 19 -59 35 -63 35 -4 0 -21 7 -37 15 -17 9 -50 17 -75 20 -49 4 -70
13 -140 60 -37 25 -56 30 -130 35 -65 4 -98 12 -136 31 -72 38 -99 42 -139 22
-35 -16 -36 -16 -114 20 -43 20 -81 37 -85 37 -5 0 -24 -15 -43 -34z"/>
<path d="M1779 3227 c-42 -28 -81 -97 -77 -134 l3 -28 25 28 c71 81 149 64
299 -67 36 -31 68 -56 72 -56 20 0 40 34 35 59 -12 49 -172 181 -255 209 -48
17 -63 15 -102 -11z"/>
<path d="M1756 2806 c-56 -21 -96 -64 -102 -111 -5 -38 -5 -39 10 -20 53 66
99 99 80 58 -13 -30 -16 -110 -5 -131 6 -11 36 -35 67 -53 53 -30 58 -31 70
-15 9 13 79 56 91 56 1 0 0 -7 -4 -16 -5 -14 -3 -15 15 -5 11 6 29 34 40 63
l19 52 24 -26 c13 -14 34 -40 47 -59 12 -19 22 -27 22 -18 0 22 -70 127 -111
167 -19 19 -47 41 -64 49 -42 22 -151 27 -199 9z m122 -57 c-2 -12 -11 -27
-20 -33 -23 -14 -52 3 -56 33 -3 19 1 21 38 21 37 0 41 -2 38 -21z"/>
<path d="M2548 2783 c-42 -10 -30 -75 20 -106 17 -11 21 -17 11 -17 -9 0 -16
-6 -16 -14 0 -16 40 -32 89 -35 14 -1 9 -9 -18 -33 -22 -21 -38 -47 -44 -73
-8 -38 -3 -65 8 -36 2 7 17 27 32 45 l28 31 0 -37 c0 -68 55 -145 108 -150 40
-3 64 3 64 15 0 16 87 60 101 51 6 -4 3 -14 -8 -27 l-18 -20 28 18 c36 23 57
64 64 125 l6 50 40 -23 c22 -12 59 -44 83 -71 24 -26 44 -43 44 -37 0 19 -72
91 -117 118 -24 14 -63 32 -86 39 -46 16 -47 16 73 -2 58 -9 50 -1 -25 24 -59
20 -59 21 -22 21 21 1 68 -7 103 -16 96 -26 131 4 78 66 -37 44 -110 79 -180
85 -77 8 -424 14 -446 9z m272 -186 c0 -8 -9 -22 -19 -31 -15 -14 -24 -15 -40
-6 -26 13 -27 37 -3 43 35 9 62 7 62 -6z"/>
<path d="M1538 2679 c-7 -18 8 -59 22 -59 13 0 13 1 -4 40 -8 20 -15 27 -18
19z"/>
<path d="M1510 2403 c-24 -127 -30 -275 -17 -373 3 -25 6 -55 6 -67 1 -16 6
-20 21 -16 16 4 18 9 10 18 -31 38 -32 314 -1 459 24 115 23 106 13 106 -5 0
-19 -57 -32 -127z"/>
<path d="M3787 2250 c-26 -16 -52 -41 -57 -56 -15 -38 -12 -40 18 -11 15 14
47 37 71 49 25 13 46 29 49 36 7 21 -33 13 -81 -18z"/>
<path d="M2051 2103 c6 -16 22 -40 35 -54 l26 -27 -54 -7 c-197 -25 -312 -89
-293 -162 6 -25 8 -26 63 -20 31 4 72 9 91 13 23 5 32 4 27 -4 -9 -14 31 -25
224 -61 191 -36 288 -60 296 -72 3 -5 19 -9 35 -9 17 0 49 -13 74 -30 70 -48
114 -34 101 35 -16 81 -215 234 -346 266 -60 14 -87 29 -53 29 20 0 73 51 73
71 0 12 -1 12 -43 -6 -55 -23 -125 -19 -184 10 -28 14 -54 32 -57 40 -3 8 -10
15 -15 15 -7 0 -7 -9 0 -27z m-43 -260 c-10 -2 -26 -2 -35 0 -10 3 -2 5 17 5
19 0 27 -2 18 -5z m131 -19 c3 -4 -12 -4 -34 -1 -22 4 -48 7 -57 7 -10 0 -18
4 -18 9 0 9 99 -4 109 -15z m120 -20 c9 -8 -45 -2 -64 6 -14 7 -8 8 20 3 22
-3 42 -7 44 -9z m61 -14 c20 -6 21 -8 5 -8 -11 0 -29 3 -40 8 -25 11 1 11 35
0z"/>
<path d="M3668 1743 c7 -3 16 -2 19 1 4 3 -2 6 -13 5 -11 0 -14 -3 -6 -6z"/>
<path d="M1710 1621 c-18 -97 -8 -147 37 -188 34 -31 39 -33 112 -33 97 0 115
11 61 35 -22 10 -40 22 -40 28 0 5 -7 6 -16 3 -8 -3 -13 -2 -9 3 3 5 -17 27
-43 48 -71 55 -86 80 -84 130 1 24 0 43 -2 43 -1 0 -9 -31 -16 -69z"/>
<path d="M2101 1599 c-12 -19 -21 -37 -21 -42 0 -16 -45 -103 -60 -114 -8 -6
-13 -14 -10 -16 5 -5 190 42 255 66 38 13 40 16 40 58 0 38 -4 45 -29 58 -16
7 -57 16 -92 19 -63 5 -63 5 -83 -29z"/>
<path d="M2298 1083 c-23 -63 -62 -106 -124 -137 -53 -26 -100 -68 -59 -52 11
4 33 13 49 19 17 5 56 35 88 66 50 49 59 63 64 104 4 26 5 47 3 47 -3 0 -12
-21 -21 -47z"/>
<path d="M2263 837 c-3 -39 -33 -103 -58 -126 -14 -11 -55 -33 -90 -47 -36
-14 -65 -31 -65 -36 0 -6 8 -7 18 -3 9 4 28 11 42 15 41 12 110 50 110 59 0 5
6 16 13 23 23 25 48 83 44 105 -4 31 -12 36 -14 10z"/>
<path d="M1240 595 c0 -5 5 -17 10 -25 5 -8 10 -10 10 -5 0 6 -5 17 -10 25 -5
8 -10 11 -10 5z"/>
<path d="M2194 498 l-29 -31 33 22 c17 12 32 27 32 32 0 14 -4 11 -36 -23z"/>
<path d="M1325 481 c50 -53 146 -99 233 -113 74 -12 428 8 438 24 3 4 -16 6
-43 3 -26 -3 -122 -7 -213 -10 -219 -6 -302 14 -405 98 l-50 40 40 -42z"/>
<path d="M2127 451 c-35 -23 -43 -31 -29 -31 6 0 24 11 39 25 33 28 29 31 -10
6z"/>
<path d="M2055 410 c-3 -6 1 -7 9 -4 18 7 21 14 7 14 -6 0 -13 -4 -16 -10z"/>
</g>
</svg>
