<svg width="107" height="119" viewBox="0 0 107 119" fill="none" xmlns="http://www.w3.org/2000/svg">
<path d="M19.48 84V49.44H23.704V57.76L22.872 56.672C23.256 55.648 23.7573 54.7093 24.376 53.856C24.9947 52.9813 25.6667 52.2667 26.392 51.712C27.288 50.9227 28.3333 50.3253 29.528 49.92C30.7227 49.4933 31.928 49.248 33.144 49.184C34.36 49.0987 35.4693 49.184 36.472 49.44V53.856C35.2133 53.536 33.8373 53.4613 32.344 53.632C30.8507 53.8027 29.4747 54.4 28.216 55.424C27.064 56.32 26.2 57.3973 25.624 58.656C25.048 59.8933 24.664 61.216 24.472 62.624C24.28 64.0107 24.184 65.3867 24.184 66.752V84H19.48ZM42.5425 84V37.92H46.8625L64.9745 76.672L82.9905 37.92H87.3745V83.968H82.8945V48.416L66.4785 84H63.4385L47.0545 48.416V84H42.5425Z" fill="black"/>
</svg>
